G04 #@! TF.GenerationSoftware,KiCad,Pcbnew,(5.1.2)-1*
G04 #@! TF.CreationDate,2020-04-17T10:46:46+02:00*
G04 #@! TF.ProjectId,AntennaBalun,416e7465-6e6e-4614-9261-6c756e2e6b69,rev?*
G04 #@! TF.SameCoordinates,Original*
G04 #@! TF.FileFunction,Soldermask,Top*
G04 #@! TF.FilePolarity,Negative*
%FSLAX46Y46*%
G04 Gerber Fmt 4.6, Leading zero omitted, Abs format (unit mm)*
G04 Created by KiCad (PCBNEW (5.1.2)-1) date 2020-04-17 10:46:46*
%MOMM*%
%LPD*%
G04 APERTURE LIST*
%ADD10C,0.100000*%
G04 APERTURE END LIST*
D10*
G36*
X161000000Y-127500000D02*
G01*
X159750000Y-128250000D01*
X157250000Y-128250000D01*
X156000000Y-127500000D01*
X156000000Y-122750000D01*
X161000000Y-122750000D01*
X161000000Y-127500000D01*
G37*
X161000000Y-127500000D02*
X159750000Y-128250000D01*
X157250000Y-128250000D01*
X156000000Y-127500000D01*
X156000000Y-122750000D01*
X161000000Y-122750000D01*
X161000000Y-127500000D01*
G36*
X165000000Y-113000000D02*
G01*
X159500000Y-113000000D01*
X159500000Y-111000000D01*
X165000000Y-111000000D01*
X165000000Y-113000000D01*
G37*
X165000000Y-113000000D02*
X159500000Y-113000000D01*
X159500000Y-111000000D01*
X165000000Y-111000000D01*
X165000000Y-113000000D01*
G36*
X157500000Y-113000000D02*
G01*
X152000000Y-113000000D01*
X152000000Y-111000000D01*
X157500000Y-111000000D01*
X157500000Y-113000000D01*
G37*
X157500000Y-113000000D02*
X152000000Y-113000000D01*
X152000000Y-111000000D01*
X157500000Y-111000000D01*
X157500000Y-113000000D01*
G36*
X158054591Y-120678085D02*
G01*
X158088569Y-120688393D01*
X158119890Y-120705134D01*
X158147339Y-120727661D01*
X158169866Y-120755110D01*
X158186607Y-120786431D01*
X158196915Y-120820409D01*
X158201000Y-120861890D01*
X158201000Y-121538110D01*
X158196915Y-121579591D01*
X158186607Y-121613569D01*
X158169866Y-121644890D01*
X158147339Y-121672339D01*
X158119890Y-121694866D01*
X158088569Y-121711607D01*
X158054591Y-121721915D01*
X158013110Y-121726000D01*
X157411890Y-121726000D01*
X157370409Y-121721915D01*
X157336431Y-121711607D01*
X157305110Y-121694866D01*
X157277661Y-121672339D01*
X157255134Y-121644890D01*
X157238393Y-121613569D01*
X157228085Y-121579591D01*
X157224000Y-121538110D01*
X157224000Y-120861890D01*
X157228085Y-120820409D01*
X157238393Y-120786431D01*
X157255134Y-120755110D01*
X157277661Y-120727661D01*
X157305110Y-120705134D01*
X157336431Y-120688393D01*
X157370409Y-120678085D01*
X157411890Y-120674000D01*
X158013110Y-120674000D01*
X158054591Y-120678085D01*
X158054591Y-120678085D01*
G37*
G36*
X159629591Y-120678085D02*
G01*
X159663569Y-120688393D01*
X159694890Y-120705134D01*
X159722339Y-120727661D01*
X159744866Y-120755110D01*
X159761607Y-120786431D01*
X159771915Y-120820409D01*
X159776000Y-120861890D01*
X159776000Y-121538110D01*
X159771915Y-121579591D01*
X159761607Y-121613569D01*
X159744866Y-121644890D01*
X159722339Y-121672339D01*
X159694890Y-121694866D01*
X159663569Y-121711607D01*
X159629591Y-121721915D01*
X159588110Y-121726000D01*
X158986890Y-121726000D01*
X158945409Y-121721915D01*
X158911431Y-121711607D01*
X158880110Y-121694866D01*
X158852661Y-121672339D01*
X158830134Y-121644890D01*
X158813393Y-121613569D01*
X158803085Y-121579591D01*
X158799000Y-121538110D01*
X158799000Y-120861890D01*
X158803085Y-120820409D01*
X158813393Y-120786431D01*
X158830134Y-120755110D01*
X158852661Y-120727661D01*
X158880110Y-120705134D01*
X158911431Y-120688393D01*
X158945409Y-120678085D01*
X158986890Y-120674000D01*
X159588110Y-120674000D01*
X159629591Y-120678085D01*
X159629591Y-120678085D01*
G37*
G36*
X158129591Y-119203085D02*
G01*
X158163569Y-119213393D01*
X158194890Y-119230134D01*
X158222339Y-119252661D01*
X158244866Y-119280110D01*
X158261607Y-119311431D01*
X158271915Y-119345409D01*
X158276000Y-119386890D01*
X158276000Y-119988110D01*
X158271915Y-120029591D01*
X158261607Y-120063569D01*
X158244866Y-120094890D01*
X158222339Y-120122339D01*
X158194890Y-120144866D01*
X158163569Y-120161607D01*
X158129591Y-120171915D01*
X158088110Y-120176000D01*
X157411890Y-120176000D01*
X157370409Y-120171915D01*
X157336431Y-120161607D01*
X157305110Y-120144866D01*
X157277661Y-120122339D01*
X157255134Y-120094890D01*
X157238393Y-120063569D01*
X157228085Y-120029591D01*
X157224000Y-119988110D01*
X157224000Y-119386890D01*
X157228085Y-119345409D01*
X157238393Y-119311431D01*
X157255134Y-119280110D01*
X157277661Y-119252661D01*
X157305110Y-119230134D01*
X157336431Y-119213393D01*
X157370409Y-119203085D01*
X157411890Y-119199000D01*
X158088110Y-119199000D01*
X158129591Y-119203085D01*
X158129591Y-119203085D01*
G37*
G36*
X158129591Y-117628085D02*
G01*
X158163569Y-117638393D01*
X158194890Y-117655134D01*
X158222339Y-117677661D01*
X158244866Y-117705110D01*
X158261607Y-117736431D01*
X158271915Y-117770409D01*
X158276000Y-117811890D01*
X158276000Y-118413110D01*
X158271915Y-118454591D01*
X158261607Y-118488569D01*
X158244866Y-118519890D01*
X158222339Y-118547339D01*
X158194890Y-118569866D01*
X158163569Y-118586607D01*
X158129591Y-118596915D01*
X158088110Y-118601000D01*
X157411890Y-118601000D01*
X157370409Y-118596915D01*
X157336431Y-118586607D01*
X157305110Y-118569866D01*
X157277661Y-118547339D01*
X157255134Y-118519890D01*
X157238393Y-118488569D01*
X157228085Y-118454591D01*
X157224000Y-118413110D01*
X157224000Y-117811890D01*
X157228085Y-117770409D01*
X157238393Y-117736431D01*
X157255134Y-117705110D01*
X157277661Y-117677661D01*
X157305110Y-117655134D01*
X157336431Y-117638393D01*
X157370409Y-117628085D01*
X157411890Y-117624000D01*
X158088110Y-117624000D01*
X158129591Y-117628085D01*
X158129591Y-117628085D01*
G37*
G36*
X159629591Y-116078085D02*
G01*
X159663569Y-116088393D01*
X159694890Y-116105134D01*
X159722339Y-116127661D01*
X159744866Y-116155110D01*
X159761607Y-116186431D01*
X159771915Y-116220409D01*
X159776000Y-116261890D01*
X159776000Y-116938110D01*
X159771915Y-116979591D01*
X159761607Y-117013569D01*
X159744866Y-117044890D01*
X159722339Y-117072339D01*
X159694890Y-117094866D01*
X159663569Y-117111607D01*
X159629591Y-117121915D01*
X159588110Y-117126000D01*
X158986890Y-117126000D01*
X158945409Y-117121915D01*
X158911431Y-117111607D01*
X158880110Y-117094866D01*
X158852661Y-117072339D01*
X158830134Y-117044890D01*
X158813393Y-117013569D01*
X158803085Y-116979591D01*
X158799000Y-116938110D01*
X158799000Y-116261890D01*
X158803085Y-116220409D01*
X158813393Y-116186431D01*
X158830134Y-116155110D01*
X158852661Y-116127661D01*
X158880110Y-116105134D01*
X158911431Y-116088393D01*
X158945409Y-116078085D01*
X158986890Y-116074000D01*
X159588110Y-116074000D01*
X159629591Y-116078085D01*
X159629591Y-116078085D01*
G37*
G36*
X158054591Y-116078085D02*
G01*
X158088569Y-116088393D01*
X158119890Y-116105134D01*
X158147339Y-116127661D01*
X158169866Y-116155110D01*
X158186607Y-116186431D01*
X158196915Y-116220409D01*
X158201000Y-116261890D01*
X158201000Y-116938110D01*
X158196915Y-116979591D01*
X158186607Y-117013569D01*
X158169866Y-117044890D01*
X158147339Y-117072339D01*
X158119890Y-117094866D01*
X158088569Y-117111607D01*
X158054591Y-117121915D01*
X158013110Y-117126000D01*
X157411890Y-117126000D01*
X157370409Y-117121915D01*
X157336431Y-117111607D01*
X157305110Y-117094866D01*
X157277661Y-117072339D01*
X157255134Y-117044890D01*
X157238393Y-117013569D01*
X157228085Y-116979591D01*
X157224000Y-116938110D01*
X157224000Y-116261890D01*
X157228085Y-116220409D01*
X157238393Y-116186431D01*
X157255134Y-116155110D01*
X157277661Y-116127661D01*
X157305110Y-116105134D01*
X157336431Y-116088393D01*
X157370409Y-116078085D01*
X157411890Y-116074000D01*
X158013110Y-116074000D01*
X158054591Y-116078085D01*
X158054591Y-116078085D01*
G37*
G36*
X157462700Y-115695200D02*
G01*
X156499500Y-115695200D01*
X156499500Y-114352000D01*
X157462700Y-114352000D01*
X157462700Y-115695200D01*
X157462700Y-115695200D01*
G37*
G36*
X158982700Y-115695200D02*
G01*
X158019500Y-115695200D01*
X158019500Y-114352000D01*
X158982700Y-114352000D01*
X158982700Y-115695200D01*
X158982700Y-115695200D01*
G37*
G36*
X160502700Y-115695200D02*
G01*
X159539500Y-115695200D01*
X159539500Y-114352000D01*
X160502700Y-114352000D01*
X160502700Y-115695200D01*
X160502700Y-115695200D01*
G37*
G36*
X155224549Y-110871116D02*
G01*
X155335734Y-110893232D01*
X155545203Y-110979997D01*
X155733720Y-111105960D01*
X155894040Y-111266280D01*
X156020003Y-111454797D01*
X156106768Y-111664266D01*
X156151000Y-111886636D01*
X156151000Y-112113364D01*
X156106768Y-112335734D01*
X156020003Y-112545203D01*
X155894040Y-112733720D01*
X155733720Y-112894040D01*
X155545203Y-113020003D01*
X155335734Y-113106768D01*
X155224549Y-113128884D01*
X155113365Y-113151000D01*
X154886635Y-113151000D01*
X154775451Y-113128884D01*
X154664266Y-113106768D01*
X154454797Y-113020003D01*
X154266280Y-112894040D01*
X154105960Y-112733720D01*
X153979997Y-112545203D01*
X153893232Y-112335734D01*
X153849000Y-112113364D01*
X153849000Y-111886636D01*
X153893232Y-111664266D01*
X153979997Y-111454797D01*
X154105960Y-111266280D01*
X154266280Y-111105960D01*
X154454797Y-110979997D01*
X154664266Y-110893232D01*
X154775451Y-110871116D01*
X154886635Y-110849000D01*
X155113365Y-110849000D01*
X155224549Y-110871116D01*
X155224549Y-110871116D01*
G37*
G36*
X162224549Y-110871116D02*
G01*
X162335734Y-110893232D01*
X162545203Y-110979997D01*
X162733720Y-111105960D01*
X162894040Y-111266280D01*
X163020003Y-111454797D01*
X163106768Y-111664266D01*
X163151000Y-111886636D01*
X163151000Y-112113364D01*
X163106768Y-112335734D01*
X163020003Y-112545203D01*
X162894040Y-112733720D01*
X162733720Y-112894040D01*
X162545203Y-113020003D01*
X162335734Y-113106768D01*
X162224549Y-113128884D01*
X162113365Y-113151000D01*
X161886635Y-113151000D01*
X161775451Y-113128884D01*
X161664266Y-113106768D01*
X161454797Y-113020003D01*
X161266280Y-112894040D01*
X161105960Y-112733720D01*
X160979997Y-112545203D01*
X160893232Y-112335734D01*
X160849000Y-112113364D01*
X160849000Y-111886636D01*
X160893232Y-111664266D01*
X160979997Y-111454797D01*
X161105960Y-111266280D01*
X161266280Y-111105960D01*
X161454797Y-110979997D01*
X161664266Y-110893232D01*
X161775451Y-110871116D01*
X161886635Y-110849000D01*
X162113365Y-110849000D01*
X162224549Y-110871116D01*
X162224549Y-110871116D01*
G37*
G36*
X160502700Y-112655200D02*
G01*
X159539500Y-112655200D01*
X159539500Y-111312000D01*
X160502700Y-111312000D01*
X160502700Y-112655200D01*
X160502700Y-112655200D01*
G37*
G36*
X158982700Y-112655200D02*
G01*
X158019500Y-112655200D01*
X158019500Y-111312000D01*
X158982700Y-111312000D01*
X158982700Y-112655200D01*
X158982700Y-112655200D01*
G37*
G36*
X157462700Y-112655200D02*
G01*
X156499500Y-112655200D01*
X156499500Y-111312000D01*
X157462700Y-111312000D01*
X157462700Y-112655200D01*
X157462700Y-112655200D01*
G37*
G36*
X158802585Y-105478802D02*
G01*
X158952410Y-105508604D01*
X159234674Y-105625521D01*
X159488705Y-105795259D01*
X159704741Y-106011295D01*
X159874479Y-106265326D01*
X159991396Y-106547590D01*
X160051000Y-106847240D01*
X160051000Y-107152760D01*
X159991396Y-107452410D01*
X159874479Y-107734674D01*
X159704741Y-107988705D01*
X159488705Y-108204741D01*
X159234674Y-108374479D01*
X158952410Y-108491396D01*
X158802585Y-108521198D01*
X158652761Y-108551000D01*
X158347239Y-108551000D01*
X158197415Y-108521198D01*
X158047590Y-108491396D01*
X157765326Y-108374479D01*
X157511295Y-108204741D01*
X157295259Y-107988705D01*
X157125521Y-107734674D01*
X157008604Y-107452410D01*
X156949000Y-107152760D01*
X156949000Y-106847240D01*
X157008604Y-106547590D01*
X157125521Y-106265326D01*
X157295259Y-106011295D01*
X157511295Y-105795259D01*
X157765326Y-105625521D01*
X158047590Y-105508604D01*
X158197415Y-105478802D01*
X158347239Y-105449000D01*
X158652761Y-105449000D01*
X158802585Y-105478802D01*
X158802585Y-105478802D01*
G37*
M02*
