G04 #@! TF.GenerationSoftware,KiCad,Pcbnew,(5.1.2)-1*
G04 #@! TF.CreationDate,2020-04-17T10:46:46+02:00*
G04 #@! TF.ProjectId,AntennaBalun,416e7465-6e6e-4614-9261-6c756e2e6b69,rev?*
G04 #@! TF.SameCoordinates,Original*
G04 #@! TF.FileFunction,Copper,L1,Top*
G04 #@! TF.FilePolarity,Positive*
%FSLAX46Y46*%
G04 Gerber Fmt 4.6, Leading zero omitted, Abs format (unit mm)*
G04 Created by KiCad (PCBNEW (5.1.2)-1) date 2020-04-17 10:46:46*
%MOMM*%
%LPD*%
G04 APERTURE LIST*
%ADD10C,0.100000*%
%ADD11C,0.875000*%
%ADD12R,0.760000X1.140000*%
%ADD13C,0.800000*%
%ADD14C,2.100000*%
%ADD15C,1.422400*%
%ADD16C,0.800000*%
%ADD17C,0.050000*%
%ADD18C,0.250000*%
G04 APERTURE END LIST*
D10*
G36*
X159527691Y-120726053D02*
G01*
X159548926Y-120729203D01*
X159569750Y-120734419D01*
X159589962Y-120741651D01*
X159609368Y-120750830D01*
X159627781Y-120761866D01*
X159645024Y-120774654D01*
X159660930Y-120789070D01*
X159675346Y-120804976D01*
X159688134Y-120822219D01*
X159699170Y-120840632D01*
X159708349Y-120860038D01*
X159715581Y-120880250D01*
X159720797Y-120901074D01*
X159723947Y-120922309D01*
X159725000Y-120943750D01*
X159725000Y-121456250D01*
X159723947Y-121477691D01*
X159720797Y-121498926D01*
X159715581Y-121519750D01*
X159708349Y-121539962D01*
X159699170Y-121559368D01*
X159688134Y-121577781D01*
X159675346Y-121595024D01*
X159660930Y-121610930D01*
X159645024Y-121625346D01*
X159627781Y-121638134D01*
X159609368Y-121649170D01*
X159589962Y-121658349D01*
X159569750Y-121665581D01*
X159548926Y-121670797D01*
X159527691Y-121673947D01*
X159506250Y-121675000D01*
X159068750Y-121675000D01*
X159047309Y-121673947D01*
X159026074Y-121670797D01*
X159005250Y-121665581D01*
X158985038Y-121658349D01*
X158965632Y-121649170D01*
X158947219Y-121638134D01*
X158929976Y-121625346D01*
X158914070Y-121610930D01*
X158899654Y-121595024D01*
X158886866Y-121577781D01*
X158875830Y-121559368D01*
X158866651Y-121539962D01*
X158859419Y-121519750D01*
X158854203Y-121498926D01*
X158851053Y-121477691D01*
X158850000Y-121456250D01*
X158850000Y-120943750D01*
X158851053Y-120922309D01*
X158854203Y-120901074D01*
X158859419Y-120880250D01*
X158866651Y-120860038D01*
X158875830Y-120840632D01*
X158886866Y-120822219D01*
X158899654Y-120804976D01*
X158914070Y-120789070D01*
X158929976Y-120774654D01*
X158947219Y-120761866D01*
X158965632Y-120750830D01*
X158985038Y-120741651D01*
X159005250Y-120734419D01*
X159026074Y-120729203D01*
X159047309Y-120726053D01*
X159068750Y-120725000D01*
X159506250Y-120725000D01*
X159527691Y-120726053D01*
X159527691Y-120726053D01*
G37*
D11*
X159287500Y-121200000D03*
D10*
G36*
X157952691Y-120726053D02*
G01*
X157973926Y-120729203D01*
X157994750Y-120734419D01*
X158014962Y-120741651D01*
X158034368Y-120750830D01*
X158052781Y-120761866D01*
X158070024Y-120774654D01*
X158085930Y-120789070D01*
X158100346Y-120804976D01*
X158113134Y-120822219D01*
X158124170Y-120840632D01*
X158133349Y-120860038D01*
X158140581Y-120880250D01*
X158145797Y-120901074D01*
X158148947Y-120922309D01*
X158150000Y-120943750D01*
X158150000Y-121456250D01*
X158148947Y-121477691D01*
X158145797Y-121498926D01*
X158140581Y-121519750D01*
X158133349Y-121539962D01*
X158124170Y-121559368D01*
X158113134Y-121577781D01*
X158100346Y-121595024D01*
X158085930Y-121610930D01*
X158070024Y-121625346D01*
X158052781Y-121638134D01*
X158034368Y-121649170D01*
X158014962Y-121658349D01*
X157994750Y-121665581D01*
X157973926Y-121670797D01*
X157952691Y-121673947D01*
X157931250Y-121675000D01*
X157493750Y-121675000D01*
X157472309Y-121673947D01*
X157451074Y-121670797D01*
X157430250Y-121665581D01*
X157410038Y-121658349D01*
X157390632Y-121649170D01*
X157372219Y-121638134D01*
X157354976Y-121625346D01*
X157339070Y-121610930D01*
X157324654Y-121595024D01*
X157311866Y-121577781D01*
X157300830Y-121559368D01*
X157291651Y-121539962D01*
X157284419Y-121519750D01*
X157279203Y-121498926D01*
X157276053Y-121477691D01*
X157275000Y-121456250D01*
X157275000Y-120943750D01*
X157276053Y-120922309D01*
X157279203Y-120901074D01*
X157284419Y-120880250D01*
X157291651Y-120860038D01*
X157300830Y-120840632D01*
X157311866Y-120822219D01*
X157324654Y-120804976D01*
X157339070Y-120789070D01*
X157354976Y-120774654D01*
X157372219Y-120761866D01*
X157390632Y-120750830D01*
X157410038Y-120741651D01*
X157430250Y-120734419D01*
X157451074Y-120729203D01*
X157472309Y-120726053D01*
X157493750Y-120725000D01*
X157931250Y-120725000D01*
X157952691Y-120726053D01*
X157952691Y-120726053D01*
G37*
D11*
X157712500Y-121200000D03*
D10*
G36*
X157952691Y-116126053D02*
G01*
X157973926Y-116129203D01*
X157994750Y-116134419D01*
X158014962Y-116141651D01*
X158034368Y-116150830D01*
X158052781Y-116161866D01*
X158070024Y-116174654D01*
X158085930Y-116189070D01*
X158100346Y-116204976D01*
X158113134Y-116222219D01*
X158124170Y-116240632D01*
X158133349Y-116260038D01*
X158140581Y-116280250D01*
X158145797Y-116301074D01*
X158148947Y-116322309D01*
X158150000Y-116343750D01*
X158150000Y-116856250D01*
X158148947Y-116877691D01*
X158145797Y-116898926D01*
X158140581Y-116919750D01*
X158133349Y-116939962D01*
X158124170Y-116959368D01*
X158113134Y-116977781D01*
X158100346Y-116995024D01*
X158085930Y-117010930D01*
X158070024Y-117025346D01*
X158052781Y-117038134D01*
X158034368Y-117049170D01*
X158014962Y-117058349D01*
X157994750Y-117065581D01*
X157973926Y-117070797D01*
X157952691Y-117073947D01*
X157931250Y-117075000D01*
X157493750Y-117075000D01*
X157472309Y-117073947D01*
X157451074Y-117070797D01*
X157430250Y-117065581D01*
X157410038Y-117058349D01*
X157390632Y-117049170D01*
X157372219Y-117038134D01*
X157354976Y-117025346D01*
X157339070Y-117010930D01*
X157324654Y-116995024D01*
X157311866Y-116977781D01*
X157300830Y-116959368D01*
X157291651Y-116939962D01*
X157284419Y-116919750D01*
X157279203Y-116898926D01*
X157276053Y-116877691D01*
X157275000Y-116856250D01*
X157275000Y-116343750D01*
X157276053Y-116322309D01*
X157279203Y-116301074D01*
X157284419Y-116280250D01*
X157291651Y-116260038D01*
X157300830Y-116240632D01*
X157311866Y-116222219D01*
X157324654Y-116204976D01*
X157339070Y-116189070D01*
X157354976Y-116174654D01*
X157372219Y-116161866D01*
X157390632Y-116150830D01*
X157410038Y-116141651D01*
X157430250Y-116134419D01*
X157451074Y-116129203D01*
X157472309Y-116126053D01*
X157493750Y-116125000D01*
X157931250Y-116125000D01*
X157952691Y-116126053D01*
X157952691Y-116126053D01*
G37*
D11*
X157712500Y-116600000D03*
D10*
G36*
X159527691Y-116126053D02*
G01*
X159548926Y-116129203D01*
X159569750Y-116134419D01*
X159589962Y-116141651D01*
X159609368Y-116150830D01*
X159627781Y-116161866D01*
X159645024Y-116174654D01*
X159660930Y-116189070D01*
X159675346Y-116204976D01*
X159688134Y-116222219D01*
X159699170Y-116240632D01*
X159708349Y-116260038D01*
X159715581Y-116280250D01*
X159720797Y-116301074D01*
X159723947Y-116322309D01*
X159725000Y-116343750D01*
X159725000Y-116856250D01*
X159723947Y-116877691D01*
X159720797Y-116898926D01*
X159715581Y-116919750D01*
X159708349Y-116939962D01*
X159699170Y-116959368D01*
X159688134Y-116977781D01*
X159675346Y-116995024D01*
X159660930Y-117010930D01*
X159645024Y-117025346D01*
X159627781Y-117038134D01*
X159609368Y-117049170D01*
X159589962Y-117058349D01*
X159569750Y-117065581D01*
X159548926Y-117070797D01*
X159527691Y-117073947D01*
X159506250Y-117075000D01*
X159068750Y-117075000D01*
X159047309Y-117073947D01*
X159026074Y-117070797D01*
X159005250Y-117065581D01*
X158985038Y-117058349D01*
X158965632Y-117049170D01*
X158947219Y-117038134D01*
X158929976Y-117025346D01*
X158914070Y-117010930D01*
X158899654Y-116995024D01*
X158886866Y-116977781D01*
X158875830Y-116959368D01*
X158866651Y-116939962D01*
X158859419Y-116919750D01*
X158854203Y-116898926D01*
X158851053Y-116877691D01*
X158850000Y-116856250D01*
X158850000Y-116343750D01*
X158851053Y-116322309D01*
X158854203Y-116301074D01*
X158859419Y-116280250D01*
X158866651Y-116260038D01*
X158875830Y-116240632D01*
X158886866Y-116222219D01*
X158899654Y-116204976D01*
X158914070Y-116189070D01*
X158929976Y-116174654D01*
X158947219Y-116161866D01*
X158965632Y-116150830D01*
X158985038Y-116141651D01*
X159005250Y-116134419D01*
X159026074Y-116129203D01*
X159047309Y-116126053D01*
X159068750Y-116125000D01*
X159506250Y-116125000D01*
X159527691Y-116126053D01*
X159527691Y-116126053D01*
G37*
D11*
X159287500Y-116600000D03*
D10*
G36*
X158027691Y-117676053D02*
G01*
X158048926Y-117679203D01*
X158069750Y-117684419D01*
X158089962Y-117691651D01*
X158109368Y-117700830D01*
X158127781Y-117711866D01*
X158145024Y-117724654D01*
X158160930Y-117739070D01*
X158175346Y-117754976D01*
X158188134Y-117772219D01*
X158199170Y-117790632D01*
X158208349Y-117810038D01*
X158215581Y-117830250D01*
X158220797Y-117851074D01*
X158223947Y-117872309D01*
X158225000Y-117893750D01*
X158225000Y-118331250D01*
X158223947Y-118352691D01*
X158220797Y-118373926D01*
X158215581Y-118394750D01*
X158208349Y-118414962D01*
X158199170Y-118434368D01*
X158188134Y-118452781D01*
X158175346Y-118470024D01*
X158160930Y-118485930D01*
X158145024Y-118500346D01*
X158127781Y-118513134D01*
X158109368Y-118524170D01*
X158089962Y-118533349D01*
X158069750Y-118540581D01*
X158048926Y-118545797D01*
X158027691Y-118548947D01*
X158006250Y-118550000D01*
X157493750Y-118550000D01*
X157472309Y-118548947D01*
X157451074Y-118545797D01*
X157430250Y-118540581D01*
X157410038Y-118533349D01*
X157390632Y-118524170D01*
X157372219Y-118513134D01*
X157354976Y-118500346D01*
X157339070Y-118485930D01*
X157324654Y-118470024D01*
X157311866Y-118452781D01*
X157300830Y-118434368D01*
X157291651Y-118414962D01*
X157284419Y-118394750D01*
X157279203Y-118373926D01*
X157276053Y-118352691D01*
X157275000Y-118331250D01*
X157275000Y-117893750D01*
X157276053Y-117872309D01*
X157279203Y-117851074D01*
X157284419Y-117830250D01*
X157291651Y-117810038D01*
X157300830Y-117790632D01*
X157311866Y-117772219D01*
X157324654Y-117754976D01*
X157339070Y-117739070D01*
X157354976Y-117724654D01*
X157372219Y-117711866D01*
X157390632Y-117700830D01*
X157410038Y-117691651D01*
X157430250Y-117684419D01*
X157451074Y-117679203D01*
X157472309Y-117676053D01*
X157493750Y-117675000D01*
X158006250Y-117675000D01*
X158027691Y-117676053D01*
X158027691Y-117676053D01*
G37*
D11*
X157750000Y-118112500D03*
D10*
G36*
X158027691Y-119251053D02*
G01*
X158048926Y-119254203D01*
X158069750Y-119259419D01*
X158089962Y-119266651D01*
X158109368Y-119275830D01*
X158127781Y-119286866D01*
X158145024Y-119299654D01*
X158160930Y-119314070D01*
X158175346Y-119329976D01*
X158188134Y-119347219D01*
X158199170Y-119365632D01*
X158208349Y-119385038D01*
X158215581Y-119405250D01*
X158220797Y-119426074D01*
X158223947Y-119447309D01*
X158225000Y-119468750D01*
X158225000Y-119906250D01*
X158223947Y-119927691D01*
X158220797Y-119948926D01*
X158215581Y-119969750D01*
X158208349Y-119989962D01*
X158199170Y-120009368D01*
X158188134Y-120027781D01*
X158175346Y-120045024D01*
X158160930Y-120060930D01*
X158145024Y-120075346D01*
X158127781Y-120088134D01*
X158109368Y-120099170D01*
X158089962Y-120108349D01*
X158069750Y-120115581D01*
X158048926Y-120120797D01*
X158027691Y-120123947D01*
X158006250Y-120125000D01*
X157493750Y-120125000D01*
X157472309Y-120123947D01*
X157451074Y-120120797D01*
X157430250Y-120115581D01*
X157410038Y-120108349D01*
X157390632Y-120099170D01*
X157372219Y-120088134D01*
X157354976Y-120075346D01*
X157339070Y-120060930D01*
X157324654Y-120045024D01*
X157311866Y-120027781D01*
X157300830Y-120009368D01*
X157291651Y-119989962D01*
X157284419Y-119969750D01*
X157279203Y-119948926D01*
X157276053Y-119927691D01*
X157275000Y-119906250D01*
X157275000Y-119468750D01*
X157276053Y-119447309D01*
X157279203Y-119426074D01*
X157284419Y-119405250D01*
X157291651Y-119385038D01*
X157300830Y-119365632D01*
X157311866Y-119347219D01*
X157324654Y-119329976D01*
X157339070Y-119314070D01*
X157354976Y-119299654D01*
X157372219Y-119286866D01*
X157390632Y-119275830D01*
X157410038Y-119266651D01*
X157430250Y-119259419D01*
X157451074Y-119254203D01*
X157472309Y-119251053D01*
X157493750Y-119250000D01*
X158006250Y-119250000D01*
X158027691Y-119251053D01*
X158027691Y-119251053D01*
G37*
D11*
X157750000Y-119687500D03*
D12*
X156981100Y-115023600D03*
X158501100Y-115023600D03*
X160021100Y-115023600D03*
X160021100Y-111983600D03*
X158501100Y-111983600D03*
X156981100Y-111983600D03*
D13*
X160600000Y-113800000D03*
X158500000Y-113700000D03*
X156400000Y-113800000D03*
X156500000Y-127250000D03*
X160500000Y-127250000D03*
X158500000Y-127500000D03*
X160500000Y-125500000D03*
X160500000Y-123750000D03*
X160500000Y-122000000D03*
X160500000Y-120250000D03*
X160500000Y-118500000D03*
X160500000Y-116750000D03*
X156500000Y-125500000D03*
X156500000Y-123750000D03*
X158500000Y-126000000D03*
X159000000Y-118500000D03*
X156500000Y-122000000D03*
X156500000Y-120250000D03*
X156500000Y-118500000D03*
X156500000Y-116750000D03*
D14*
X162000000Y-112000000D02*
X164000000Y-112000000D01*
X155000000Y-112000000D02*
X153000000Y-112000000D01*
X162000000Y-112000000D02*
X160600000Y-112000000D01*
X155000000Y-112000000D02*
X156400000Y-112000000D01*
D15*
X158601100Y-123403600D02*
X158601100Y-124403600D01*
D16*
X156981100Y-115868600D02*
X157712500Y-116600000D01*
X156981100Y-115023600D02*
X156981100Y-115868600D01*
X157712500Y-118075000D02*
X157750000Y-118112500D01*
X157712500Y-116600000D02*
X157712500Y-118075000D01*
X157750000Y-121162500D02*
X157712500Y-121200000D01*
X157750000Y-119687500D02*
X157750000Y-121162500D01*
X158601100Y-123132350D02*
X158601100Y-123403600D01*
X157712500Y-121200000D02*
X157712500Y-122243750D01*
X157712500Y-122243750D02*
X158601100Y-123132350D01*
D17*
G36*
X156621901Y-111053075D02*
G01*
X156826891Y-111124804D01*
X157010779Y-111240348D01*
X157164351Y-111393920D01*
X157279134Y-111576597D01*
X157375782Y-112000033D01*
X157351375Y-112216646D01*
X157278908Y-112423744D01*
X157162175Y-112609524D01*
X157007024Y-112764675D01*
X156822455Y-112880647D01*
X156393296Y-112978600D01*
X154502506Y-112978600D01*
X154284176Y-112954000D01*
X154078132Y-112881902D01*
X153893298Y-112765763D01*
X153738937Y-112611402D01*
X153623559Y-112427779D01*
X153526418Y-112002179D01*
X153550700Y-111786676D01*
X153622798Y-111580632D01*
X153738937Y-111395798D01*
X153893298Y-111241437D01*
X154076921Y-111126059D01*
X154503916Y-111028600D01*
X156404681Y-111028600D01*
X156621901Y-111053075D01*
X156621901Y-111053075D01*
G37*
X156621901Y-111053075D02*
X156826891Y-111124804D01*
X157010779Y-111240348D01*
X157164351Y-111393920D01*
X157279134Y-111576597D01*
X157375782Y-112000033D01*
X157351375Y-112216646D01*
X157278908Y-112423744D01*
X157162175Y-112609524D01*
X157007024Y-112764675D01*
X156822455Y-112880647D01*
X156393296Y-112978600D01*
X154502506Y-112978600D01*
X154284176Y-112954000D01*
X154078132Y-112881902D01*
X153893298Y-112765763D01*
X153738937Y-112611402D01*
X153623559Y-112427779D01*
X153526418Y-112002179D01*
X153550700Y-111786676D01*
X153622798Y-111580632D01*
X153738937Y-111395798D01*
X153893298Y-111241437D01*
X154076921Y-111126059D01*
X154503916Y-111028600D01*
X156404681Y-111028600D01*
X156621901Y-111053075D01*
G36*
X162925279Y-111126059D02*
G01*
X163108902Y-111241437D01*
X163263263Y-111395798D01*
X163379402Y-111580632D01*
X163451500Y-111786676D01*
X163475782Y-112002179D01*
X163378641Y-112427779D01*
X163263263Y-112611402D01*
X163108902Y-112765763D01*
X162924068Y-112881902D01*
X162718024Y-112954000D01*
X162499694Y-112978600D01*
X160598928Y-112978600D01*
X160174097Y-112881634D01*
X159991420Y-112766851D01*
X159837848Y-112613279D01*
X159722304Y-112429391D01*
X159650575Y-112224401D01*
X159626418Y-112010008D01*
X159724052Y-111582245D01*
X159840024Y-111397676D01*
X159995175Y-111242525D01*
X160180954Y-111125792D01*
X160388052Y-111053325D01*
X160607491Y-111028600D01*
X162498284Y-111028600D01*
X162925279Y-111126059D01*
X162925279Y-111126059D01*
G37*
X162925279Y-111126059D02*
X163108902Y-111241437D01*
X163263263Y-111395798D01*
X163379402Y-111580632D01*
X163451500Y-111786676D01*
X163475782Y-112002179D01*
X163378641Y-112427779D01*
X163263263Y-112611402D01*
X163108902Y-112765763D01*
X162924068Y-112881902D01*
X162718024Y-112954000D01*
X162499694Y-112978600D01*
X160598928Y-112978600D01*
X160174097Y-112881634D01*
X159991420Y-112766851D01*
X159837848Y-112613279D01*
X159722304Y-112429391D01*
X159650575Y-112224401D01*
X159626418Y-112010008D01*
X159724052Y-111582245D01*
X159840024Y-111397676D01*
X159995175Y-111242525D01*
X160180954Y-111125792D01*
X160388052Y-111053325D01*
X160607491Y-111028600D01*
X162498284Y-111028600D01*
X162925279Y-111126059D01*
D18*
G36*
X160310850Y-113453657D02*
G01*
X160527548Y-113475000D01*
X160875000Y-113475000D01*
X160875000Y-114000000D01*
X160877402Y-114024386D01*
X160884515Y-114047835D01*
X160896066Y-114069446D01*
X160900001Y-114074241D01*
X160900000Y-127491802D01*
X159814832Y-128037606D01*
X159808834Y-128039425D01*
X159770883Y-128059711D01*
X159754493Y-128067954D01*
X159749233Y-128071283D01*
X159721972Y-128085854D01*
X159707709Y-128097559D01*
X159692120Y-128107424D01*
X159673648Y-128125000D01*
X157328532Y-128125000D01*
X157309830Y-128107228D01*
X157294367Y-128097457D01*
X157280229Y-128085854D01*
X157252829Y-128071209D01*
X157247432Y-128067798D01*
X157231172Y-128059632D01*
X157193366Y-128039425D01*
X157187219Y-128037560D01*
X156100000Y-127491585D01*
X156100000Y-115868600D01*
X156152110Y-115868600D01*
X156156100Y-115909113D01*
X156156100Y-115909121D01*
X156159997Y-115948684D01*
X156168038Y-116030328D01*
X156201137Y-116139438D01*
X156215213Y-116185841D01*
X156291820Y-116329163D01*
X156394916Y-116454785D01*
X156426391Y-116480616D01*
X156852961Y-116907186D01*
X156860353Y-116982241D01*
X156887500Y-117071733D01*
X156887501Y-117678265D01*
X156860353Y-117767759D01*
X156847944Y-117893750D01*
X156847944Y-118331250D01*
X156860353Y-118457241D01*
X156897103Y-118578389D01*
X156956782Y-118690041D01*
X157037096Y-118787904D01*
X157134959Y-118868218D01*
X157194419Y-118900000D01*
X157134959Y-118931782D01*
X157037096Y-119012096D01*
X156956782Y-119109959D01*
X156897103Y-119221611D01*
X156860353Y-119342759D01*
X156847944Y-119468750D01*
X156847944Y-119906250D01*
X156860353Y-120032241D01*
X156897103Y-120153389D01*
X156925000Y-120205581D01*
X156925001Y-120644418D01*
X156897103Y-120696611D01*
X156860353Y-120817759D01*
X156847944Y-120943750D01*
X156847944Y-121456250D01*
X156860353Y-121582241D01*
X156887500Y-121671734D01*
X156887501Y-122203227D01*
X156883510Y-122243750D01*
X156899438Y-122405478D01*
X156942116Y-122546165D01*
X156946613Y-122560991D01*
X157023220Y-122704313D01*
X157126316Y-122829935D01*
X157157791Y-122855766D01*
X157481701Y-123179677D01*
X157481340Y-123180867D01*
X157464900Y-123347788D01*
X157464900Y-124459413D01*
X157481340Y-124626334D01*
X157546310Y-124840509D01*
X157651815Y-125037893D01*
X157793799Y-125210902D01*
X157966808Y-125352886D01*
X158164192Y-125458390D01*
X158378367Y-125523360D01*
X158601100Y-125545297D01*
X158823834Y-125523360D01*
X159038009Y-125458390D01*
X159235393Y-125352886D01*
X159408402Y-125210902D01*
X159550386Y-125037893D01*
X159655890Y-124840509D01*
X159720860Y-124626334D01*
X159737300Y-124459413D01*
X159737300Y-123347787D01*
X159720860Y-123180866D01*
X159655890Y-122966691D01*
X159550386Y-122769307D01*
X159408402Y-122596298D01*
X159235393Y-122454314D01*
X159038008Y-122348810D01*
X158960893Y-122325417D01*
X158713057Y-122077582D01*
X158766686Y-122093850D01*
X158850000Y-122102056D01*
X159156250Y-122100000D01*
X159262500Y-121993750D01*
X159262500Y-121225000D01*
X159312500Y-121225000D01*
X159312500Y-121993750D01*
X159418750Y-122100000D01*
X159725000Y-122102056D01*
X159808314Y-122093850D01*
X159888427Y-122069548D01*
X159962260Y-122030084D01*
X160026974Y-121976974D01*
X160080084Y-121912260D01*
X160119548Y-121838427D01*
X160143850Y-121758314D01*
X160152056Y-121675000D01*
X160150000Y-121331250D01*
X160043750Y-121225000D01*
X159312500Y-121225000D01*
X159262500Y-121225000D01*
X159242500Y-121225000D01*
X159242500Y-121175000D01*
X159262500Y-121175000D01*
X159262500Y-120406250D01*
X159312500Y-120406250D01*
X159312500Y-121175000D01*
X160043750Y-121175000D01*
X160150000Y-121068750D01*
X160152056Y-120725000D01*
X160143850Y-120641686D01*
X160119548Y-120561573D01*
X160080084Y-120487740D01*
X160026974Y-120423026D01*
X159962260Y-120369916D01*
X159888427Y-120330452D01*
X159808314Y-120306150D01*
X159725000Y-120297944D01*
X159418750Y-120300000D01*
X159312500Y-120406250D01*
X159262500Y-120406250D01*
X159156250Y-120300000D01*
X158850000Y-120297944D01*
X158766686Y-120306150D01*
X158686573Y-120330452D01*
X158612740Y-120369916D01*
X158575000Y-120400889D01*
X158575000Y-120205581D01*
X158602897Y-120153389D01*
X158639647Y-120032241D01*
X158652056Y-119906250D01*
X158652056Y-119468750D01*
X158639647Y-119342759D01*
X158602897Y-119221611D01*
X158543218Y-119109959D01*
X158462904Y-119012096D01*
X158365041Y-118931782D01*
X158305581Y-118900000D01*
X158365041Y-118868218D01*
X158462904Y-118787904D01*
X158543218Y-118690041D01*
X158602897Y-118578389D01*
X158639647Y-118457241D01*
X158652056Y-118331250D01*
X158652056Y-117893750D01*
X158639647Y-117767759D01*
X158602897Y-117646611D01*
X158543218Y-117534959D01*
X158537500Y-117527992D01*
X158537500Y-117364148D01*
X158548026Y-117376974D01*
X158612740Y-117430084D01*
X158686573Y-117469548D01*
X158766686Y-117493850D01*
X158850000Y-117502056D01*
X159156250Y-117500000D01*
X159262500Y-117393750D01*
X159262500Y-116625000D01*
X159312500Y-116625000D01*
X159312500Y-117393750D01*
X159418750Y-117500000D01*
X159725000Y-117502056D01*
X159808314Y-117493850D01*
X159888427Y-117469548D01*
X159962260Y-117430084D01*
X160026974Y-117376974D01*
X160080084Y-117312260D01*
X160119548Y-117238427D01*
X160143850Y-117158314D01*
X160152056Y-117075000D01*
X160150000Y-116731250D01*
X160043750Y-116625000D01*
X159312500Y-116625000D01*
X159262500Y-116625000D01*
X159242500Y-116625000D01*
X159242500Y-116575000D01*
X159262500Y-116575000D01*
X159262500Y-116555000D01*
X159312500Y-116555000D01*
X159312500Y-116575000D01*
X160043750Y-116575000D01*
X160150000Y-116468750D01*
X160152056Y-116125000D01*
X160143850Y-116041686D01*
X160130096Y-115996346D01*
X160152350Y-116018600D01*
X160401100Y-116020656D01*
X160484414Y-116012450D01*
X160564527Y-115988148D01*
X160638360Y-115948684D01*
X160703074Y-115895574D01*
X160756184Y-115830860D01*
X160795648Y-115757027D01*
X160819950Y-115676914D01*
X160828156Y-115593600D01*
X160826100Y-115154850D01*
X160719850Y-115048600D01*
X160046100Y-115048600D01*
X160046100Y-115068600D01*
X159996100Y-115068600D01*
X159996100Y-115048600D01*
X159976100Y-115048600D01*
X159976100Y-114998600D01*
X159996100Y-114998600D01*
X159996100Y-114134850D01*
X160046100Y-114134850D01*
X160046100Y-114998600D01*
X160719850Y-114998600D01*
X160826100Y-114892350D01*
X160828156Y-114453600D01*
X160819950Y-114370286D01*
X160795648Y-114290173D01*
X160756184Y-114216340D01*
X160703074Y-114151626D01*
X160638360Y-114098516D01*
X160564527Y-114059052D01*
X160484414Y-114034750D01*
X160401100Y-114026544D01*
X160152350Y-114028600D01*
X160046100Y-114134850D01*
X159996100Y-114134850D01*
X159889850Y-114028600D01*
X159641100Y-114026544D01*
X159557786Y-114034750D01*
X159477673Y-114059052D01*
X159403840Y-114098516D01*
X159339126Y-114151626D01*
X159286016Y-114216340D01*
X159261100Y-114262955D01*
X159236184Y-114216340D01*
X159183074Y-114151626D01*
X159118360Y-114098516D01*
X159044527Y-114059052D01*
X158964414Y-114034750D01*
X158881100Y-114026544D01*
X158121100Y-114026544D01*
X158037786Y-114034750D01*
X157957673Y-114059052D01*
X157883840Y-114098516D01*
X157819126Y-114151626D01*
X157766016Y-114216340D01*
X157741100Y-114262955D01*
X157716184Y-114216340D01*
X157663074Y-114151626D01*
X157598360Y-114098516D01*
X157524527Y-114059052D01*
X157444414Y-114034750D01*
X157361100Y-114026544D01*
X156601100Y-114026544D01*
X156517786Y-114034750D01*
X156437673Y-114059052D01*
X156363840Y-114098516D01*
X156299126Y-114151626D01*
X156246016Y-114216340D01*
X156206552Y-114290173D01*
X156182250Y-114370286D01*
X156174044Y-114453600D01*
X156174044Y-114842074D01*
X156168038Y-114861873D01*
X156156100Y-114983080D01*
X156156100Y-115828087D01*
X156152110Y-115868600D01*
X156100000Y-115868600D01*
X156100000Y-114074239D01*
X156103934Y-114069446D01*
X156115485Y-114047835D01*
X156122598Y-114024386D01*
X156125000Y-114000000D01*
X156125000Y-113475000D01*
X156472452Y-113475000D01*
X156689150Y-113453657D01*
X156783620Y-113425000D01*
X160216380Y-113425000D01*
X160310850Y-113453657D01*
X160310850Y-113453657D01*
G37*
X160310850Y-113453657D02*
X160527548Y-113475000D01*
X160875000Y-113475000D01*
X160875000Y-114000000D01*
X160877402Y-114024386D01*
X160884515Y-114047835D01*
X160896066Y-114069446D01*
X160900001Y-114074241D01*
X160900000Y-127491802D01*
X159814832Y-128037606D01*
X159808834Y-128039425D01*
X159770883Y-128059711D01*
X159754493Y-128067954D01*
X159749233Y-128071283D01*
X159721972Y-128085854D01*
X159707709Y-128097559D01*
X159692120Y-128107424D01*
X159673648Y-128125000D01*
X157328532Y-128125000D01*
X157309830Y-128107228D01*
X157294367Y-128097457D01*
X157280229Y-128085854D01*
X157252829Y-128071209D01*
X157247432Y-128067798D01*
X157231172Y-128059632D01*
X157193366Y-128039425D01*
X157187219Y-128037560D01*
X156100000Y-127491585D01*
X156100000Y-115868600D01*
X156152110Y-115868600D01*
X156156100Y-115909113D01*
X156156100Y-115909121D01*
X156159997Y-115948684D01*
X156168038Y-116030328D01*
X156201137Y-116139438D01*
X156215213Y-116185841D01*
X156291820Y-116329163D01*
X156394916Y-116454785D01*
X156426391Y-116480616D01*
X156852961Y-116907186D01*
X156860353Y-116982241D01*
X156887500Y-117071733D01*
X156887501Y-117678265D01*
X156860353Y-117767759D01*
X156847944Y-117893750D01*
X156847944Y-118331250D01*
X156860353Y-118457241D01*
X156897103Y-118578389D01*
X156956782Y-118690041D01*
X157037096Y-118787904D01*
X157134959Y-118868218D01*
X157194419Y-118900000D01*
X157134959Y-118931782D01*
X157037096Y-119012096D01*
X156956782Y-119109959D01*
X156897103Y-119221611D01*
X156860353Y-119342759D01*
X156847944Y-119468750D01*
X156847944Y-119906250D01*
X156860353Y-120032241D01*
X156897103Y-120153389D01*
X156925000Y-120205581D01*
X156925001Y-120644418D01*
X156897103Y-120696611D01*
X156860353Y-120817759D01*
X156847944Y-120943750D01*
X156847944Y-121456250D01*
X156860353Y-121582241D01*
X156887500Y-121671734D01*
X156887501Y-122203227D01*
X156883510Y-122243750D01*
X156899438Y-122405478D01*
X156942116Y-122546165D01*
X156946613Y-122560991D01*
X157023220Y-122704313D01*
X157126316Y-122829935D01*
X157157791Y-122855766D01*
X157481701Y-123179677D01*
X157481340Y-123180867D01*
X157464900Y-123347788D01*
X157464900Y-124459413D01*
X157481340Y-124626334D01*
X157546310Y-124840509D01*
X157651815Y-125037893D01*
X157793799Y-125210902D01*
X157966808Y-125352886D01*
X158164192Y-125458390D01*
X158378367Y-125523360D01*
X158601100Y-125545297D01*
X158823834Y-125523360D01*
X159038009Y-125458390D01*
X159235393Y-125352886D01*
X159408402Y-125210902D01*
X159550386Y-125037893D01*
X159655890Y-124840509D01*
X159720860Y-124626334D01*
X159737300Y-124459413D01*
X159737300Y-123347787D01*
X159720860Y-123180866D01*
X159655890Y-122966691D01*
X159550386Y-122769307D01*
X159408402Y-122596298D01*
X159235393Y-122454314D01*
X159038008Y-122348810D01*
X158960893Y-122325417D01*
X158713057Y-122077582D01*
X158766686Y-122093850D01*
X158850000Y-122102056D01*
X159156250Y-122100000D01*
X159262500Y-121993750D01*
X159262500Y-121225000D01*
X159312500Y-121225000D01*
X159312500Y-121993750D01*
X159418750Y-122100000D01*
X159725000Y-122102056D01*
X159808314Y-122093850D01*
X159888427Y-122069548D01*
X159962260Y-122030084D01*
X160026974Y-121976974D01*
X160080084Y-121912260D01*
X160119548Y-121838427D01*
X160143850Y-121758314D01*
X160152056Y-121675000D01*
X160150000Y-121331250D01*
X160043750Y-121225000D01*
X159312500Y-121225000D01*
X159262500Y-121225000D01*
X159242500Y-121225000D01*
X159242500Y-121175000D01*
X159262500Y-121175000D01*
X159262500Y-120406250D01*
X159312500Y-120406250D01*
X159312500Y-121175000D01*
X160043750Y-121175000D01*
X160150000Y-121068750D01*
X160152056Y-120725000D01*
X160143850Y-120641686D01*
X160119548Y-120561573D01*
X160080084Y-120487740D01*
X160026974Y-120423026D01*
X159962260Y-120369916D01*
X159888427Y-120330452D01*
X159808314Y-120306150D01*
X159725000Y-120297944D01*
X159418750Y-120300000D01*
X159312500Y-120406250D01*
X159262500Y-120406250D01*
X159156250Y-120300000D01*
X158850000Y-120297944D01*
X158766686Y-120306150D01*
X158686573Y-120330452D01*
X158612740Y-120369916D01*
X158575000Y-120400889D01*
X158575000Y-120205581D01*
X158602897Y-120153389D01*
X158639647Y-120032241D01*
X158652056Y-119906250D01*
X158652056Y-119468750D01*
X158639647Y-119342759D01*
X158602897Y-119221611D01*
X158543218Y-119109959D01*
X158462904Y-119012096D01*
X158365041Y-118931782D01*
X158305581Y-118900000D01*
X158365041Y-118868218D01*
X158462904Y-118787904D01*
X158543218Y-118690041D01*
X158602897Y-118578389D01*
X158639647Y-118457241D01*
X158652056Y-118331250D01*
X158652056Y-117893750D01*
X158639647Y-117767759D01*
X158602897Y-117646611D01*
X158543218Y-117534959D01*
X158537500Y-117527992D01*
X158537500Y-117364148D01*
X158548026Y-117376974D01*
X158612740Y-117430084D01*
X158686573Y-117469548D01*
X158766686Y-117493850D01*
X158850000Y-117502056D01*
X159156250Y-117500000D01*
X159262500Y-117393750D01*
X159262500Y-116625000D01*
X159312500Y-116625000D01*
X159312500Y-117393750D01*
X159418750Y-117500000D01*
X159725000Y-117502056D01*
X159808314Y-117493850D01*
X159888427Y-117469548D01*
X159962260Y-117430084D01*
X160026974Y-117376974D01*
X160080084Y-117312260D01*
X160119548Y-117238427D01*
X160143850Y-117158314D01*
X160152056Y-117075000D01*
X160150000Y-116731250D01*
X160043750Y-116625000D01*
X159312500Y-116625000D01*
X159262500Y-116625000D01*
X159242500Y-116625000D01*
X159242500Y-116575000D01*
X159262500Y-116575000D01*
X159262500Y-116555000D01*
X159312500Y-116555000D01*
X159312500Y-116575000D01*
X160043750Y-116575000D01*
X160150000Y-116468750D01*
X160152056Y-116125000D01*
X160143850Y-116041686D01*
X160130096Y-115996346D01*
X160152350Y-116018600D01*
X160401100Y-116020656D01*
X160484414Y-116012450D01*
X160564527Y-115988148D01*
X160638360Y-115948684D01*
X160703074Y-115895574D01*
X160756184Y-115830860D01*
X160795648Y-115757027D01*
X160819950Y-115676914D01*
X160828156Y-115593600D01*
X160826100Y-115154850D01*
X160719850Y-115048600D01*
X160046100Y-115048600D01*
X160046100Y-115068600D01*
X159996100Y-115068600D01*
X159996100Y-115048600D01*
X159976100Y-115048600D01*
X159976100Y-114998600D01*
X159996100Y-114998600D01*
X159996100Y-114134850D01*
X160046100Y-114134850D01*
X160046100Y-114998600D01*
X160719850Y-114998600D01*
X160826100Y-114892350D01*
X160828156Y-114453600D01*
X160819950Y-114370286D01*
X160795648Y-114290173D01*
X160756184Y-114216340D01*
X160703074Y-114151626D01*
X160638360Y-114098516D01*
X160564527Y-114059052D01*
X160484414Y-114034750D01*
X160401100Y-114026544D01*
X160152350Y-114028600D01*
X160046100Y-114134850D01*
X159996100Y-114134850D01*
X159889850Y-114028600D01*
X159641100Y-114026544D01*
X159557786Y-114034750D01*
X159477673Y-114059052D01*
X159403840Y-114098516D01*
X159339126Y-114151626D01*
X159286016Y-114216340D01*
X159261100Y-114262955D01*
X159236184Y-114216340D01*
X159183074Y-114151626D01*
X159118360Y-114098516D01*
X159044527Y-114059052D01*
X158964414Y-114034750D01*
X158881100Y-114026544D01*
X158121100Y-114026544D01*
X158037786Y-114034750D01*
X157957673Y-114059052D01*
X157883840Y-114098516D01*
X157819126Y-114151626D01*
X157766016Y-114216340D01*
X157741100Y-114262955D01*
X157716184Y-114216340D01*
X157663074Y-114151626D01*
X157598360Y-114098516D01*
X157524527Y-114059052D01*
X157444414Y-114034750D01*
X157361100Y-114026544D01*
X156601100Y-114026544D01*
X156517786Y-114034750D01*
X156437673Y-114059052D01*
X156363840Y-114098516D01*
X156299126Y-114151626D01*
X156246016Y-114216340D01*
X156206552Y-114290173D01*
X156182250Y-114370286D01*
X156174044Y-114453600D01*
X156174044Y-114842074D01*
X156168038Y-114861873D01*
X156156100Y-114983080D01*
X156156100Y-115828087D01*
X156152110Y-115868600D01*
X156100000Y-115868600D01*
X156100000Y-114074239D01*
X156103934Y-114069446D01*
X156115485Y-114047835D01*
X156122598Y-114024386D01*
X156125000Y-114000000D01*
X156125000Y-113475000D01*
X156472452Y-113475000D01*
X156689150Y-113453657D01*
X156783620Y-113425000D01*
X160216380Y-113425000D01*
X160310850Y-113453657D01*
M02*
