M48
; DRILL file {KiCad (5.1.2)-1} date 17/04/2020 10:46:52
; FORMAT={-:-/ absolute / metric / decimal}
; #@! TF.CreationDate,2020-04-17T10:46:52+02:00
; #@! TF.GenerationSoftware,Kicad,Pcbnew,(5.1.2)-1
; #@! TF.FileFunction,Plated,1,2,PTH
FMAT,2
METRIC
T1C0.400
%
G90
G05
T1
X156.4Y-113.8
X156.5Y-116.75
X156.5Y-118.5
X156.5Y-120.25
X156.5Y-122.0
X156.5Y-123.75
X156.5Y-125.5
X156.5Y-127.25
X158.5Y-113.7
X158.5Y-126.0
X158.5Y-127.5
X159.0Y-118.5
X160.5Y-116.75
X160.5Y-118.5
X160.5Y-120.25
X160.5Y-122.0
X160.5Y-123.75
X160.5Y-125.5
X160.5Y-127.25
X160.6Y-113.8
T0
M30
